<?xml version="1.0" encoding="UTF-8"?>
<svg id="_レイヤー_1" data-name="レイヤー_1" xmlns="http://www.w3.org/2000/svg" version="1.1" viewBox="0 0 1600 350">
  <!-- Generator: Adobe Illustrator 29.4.0, SVG Export Plug-In . SVG Version: 2.1.0 Build 152)  -->
  <defs>
    <style>
      .st0 {
        stroke: #fff;
        stroke-linecap: round;
      }

      .st0, .st1 {
        fill: none;
        stroke-width: 6px;
      }

      .st2 {
        stroke: #0b3a8d;
        stroke-linejoin: round;
        stroke-width: 12px;
      }

      .st2, .st3, .st4 {
        fill: #1d7ed6;
      }

      .st3 {
        font-family: Orbitron-Bold, Orbitron;
        font-size: 48px;
      }

      .st3, .st4 {
        font-weight: 700;
        isolation: isolate;
      }

      .st1 {
        stroke: #1d7ed6;
      }

      .st4 {
        font-family: Poppins-Bold, Poppins;
        font-size: 96px;
      }
    </style>
  </defs>
  <g>
    <polygon class="st2" points="160 80 229.28 120 229.28 200 160 240 90.72 200 90.72 120 160 80"/>
    <line class="st0" x1="160" y1="160" x2="160" y2="80"/>
    <line class="st0" x1="160" y1="160" x2="229.28" y2="120"/>
    <line class="st0" x1="160" y1="160" x2="229.28" y2="200"/>
    <line class="st0" x1="160" y1="160" x2="160" y2="240"/>
    <line class="st0" x1="160" y1="160" x2="90.72" y2="200"/>
    <line class="st0" x1="160" y1="160" x2="90.72" y2="120"/>
    <line class="st0" x1="160" y1="80" x2="229.28" y2="200"/>
    <line class="st0" x1="229.28" y1="120" x2="160" y2="240"/>
    <line class="st0" x1="229.28" y1="200" x2="90.72" y2="200"/>
    <line class="st0" x1="160" y1="240" x2="90.72" y2="120"/>
    <line class="st0" x1="90.72" y1="200" x2="160" y2="80"/>
    <line class="st0" x1="90.72" y1="120" x2="229.28" y2="120"/>
  </g>
  <text class="st4" transform="translate(300 160)"><tspan x="0" y="0">Project-NovatriX</tspan></text>
  <line class="st1" x1="305.95" y1="230" x2="415.95" y2="230"/>
  <line class="st1" x1="1025.57" y1="230" x2="1135.57" y2="230"/>
  <text class="st3" transform="translate(487.24 250)"><tspan x="0" y="0">NEXT TO NOVA ?</tspan></text>
</svg>